<svg width="16" height="16" viewBox="0 0 16 16" fill="none" xmlns="http://www.w3.org/2000/svg">
<path d="M7.8372 4.55241C7.8372 3.84516 7.55625 3.16689 7.05615 2.66679C6.55605 2.16669 5.87778 1.88574 5.17053 1.88574H1.17053V11.8857H5.8372C6.36763 11.8857 6.87634 12.0965 7.25141 12.4715C7.62649 12.8466 7.8372 13.3553 7.8372 13.8857M7.8372 4.55241V13.8857M7.8372 4.55241C7.8372 3.84516 8.11815 3.16689 8.61825 2.66679C9.11834 2.16669 9.79662 1.88574 10.5039 1.88574H14.5039V11.8857H9.8372C9.30677 11.8857 8.79806 12.0965 8.42298 12.4715C8.04791 12.8466 7.8372 13.3553 7.8372 13.8857" stroke="#1B2128" stroke-width="1.5" stroke-linecap="round" stroke-linejoin="round"/>
</svg>
