<svg width="331" height="95" viewBox="0 0 331 95" fill="none" xmlns="http://www.w3.org/2000/svg">
<path d="M0 1.64448H33.0372C50.1255 1.64448 65.315 6.07196 65.315 24.2876C65.315 33.0159 61.5176 40.8589 55.1887 44.5273C63.9227 48.1957 69.1124 55.0266 69.1124 66.2849C69.1124 85.7656 54.5558 93.3555 36.2017 93.3555H0V1.64448ZM12.9111 40.8588H35.0625C45.5686 40.8588 52.2773 36.8109 52.2773 26.0586C52.2773 16.6978 45.3155 12.5233 35.0625 12.5233H12.9111V40.8588ZM12.9111 82.4767H36.3283C49.366 82.4767 55.8216 76.7842 55.8216 66.4114C55.8216 55.6591 49.366 51.1052 35.5688 51.1052H12.9111V82.4767Z" fill="#333333"/>
<path d="M111.545 54.6471C109.266 54.7736 106.988 54.7736 104.583 54.7736H88.3805V93.3555H75.4694V1.64448H104.583C126.987 1.64448 142.81 6.07196 142.81 28.0826C142.81 42.6298 135.848 49.5872 124.582 52.6232L145.848 93.3555H131.417L111.545 54.6471ZM88.3805 12.5233V43.8948H105.595C119.013 43.8948 129.519 42.5033 129.519 28.3356C129.519 14.1678 119.013 12.5233 105.595 12.5233H88.3805Z" fill="#333333"/>
<path d="M162.61 93.3555H149.699V1.64448H162.61V93.3555Z" fill="#333333"/>
<path d="M250.8 64.1345C246.75 84.3741 230.927 95 211.054 95C184.726 95 169.409 75.2663 169.409 47.3102C169.409 18.8483 186.118 0 212.067 0C231.054 0 246.37 11.2584 250.294 30.8655H237.762C234.978 19.4807 226.117 10.8788 211.434 10.8788C195.232 10.8788 182.574 23.5287 182.574 47.3102C182.574 70.4593 194.725 84.1212 211.814 84.1212C226.37 84.1212 235.357 75.8988 238.269 64.1345H250.8Z" fill="#333333"/>
<path d="M294.545 0C311 0 325.81 7.33694 329.355 25.0466H316.823C313.659 14.4208 303.279 10.8788 294.039 10.8788C286.95 10.8788 274.546 14.0413 274.546 24.2876C274.546 32.3835 281.001 36.4314 289.482 38.3289L300.115 40.7324C314.165 43.7683 331 49.0813 331 67.5499C331 85.5126 314.292 95 296.064 95C274.419 95 260.748 83.2356 258.343 64.8935H271.001C273.406 77.5432 282.267 84.1212 296.317 84.1212C309.861 84.1212 317.709 77.6697 317.709 68.6884C317.709 59.0746 309.482 55.0266 297.963 52.4967L286.571 50.0932C274.039 47.3102 261.381 40.3528 261.381 25.0466C261.381 7.58993 279.735 0 294.545 0Z" fill="#333333"/>
</svg>
