<svg width="34" height="34" viewBox="0 0 34 34" fill="none" xmlns="http://www.w3.org/2000/svg">
<path d="M22.6673 22.6667V8.78333C22.6673 7.19652 22.6673 6.40311 22.3585 5.79703C22.0869 5.2639 21.6534 4.83046 21.1203 4.55881C20.5142 4.25 19.7208 4.25 18.134 4.25H7.36732C5.7805 4.25 4.98709 4.25 4.38101 4.55881C3.84789 4.83046 3.41444 5.2639 3.1428 5.79703C2.83398 6.40311 2.83398 7.19652 2.83398 8.78333V18.1333C2.83398 19.7201 2.83398 20.5136 3.1428 21.1196C3.41444 21.6528 3.84789 22.0862 4.38101 22.3579C4.98709 22.6667 5.7805 22.6667 7.36732 22.6667H22.6673ZM22.6673 22.6667H28.9006C29.6941 22.6667 30.0908 22.6667 30.3938 22.5123C30.6604 22.3764 30.8771 22.1597 31.0129 21.8932C31.1673 21.5901 31.1673 21.1934 31.1673 20.4V16.5222C31.1673 16.1757 31.1673 16.0025 31.1282 15.8394C31.0935 15.6949 31.0362 15.5567 30.9586 15.4299C30.8709 15.287 30.7484 15.1645 30.5034 14.9194L27.5812 11.9972C27.3362 11.7522 27.2137 11.6297 27.0707 11.5421C26.944 11.4644 26.8058 11.4072 26.6612 11.3725C26.4982 11.3333 26.3249 11.3333 25.9784 11.3333H22.6673M12.7507 26.2083C12.7507 28.1643 11.165 29.75 9.20898 29.75C7.25298 29.75 5.66732 28.1643 5.66732 26.2083C5.66732 24.2523 7.25298 22.6667 9.20898 22.6667C11.165 22.6667 12.7507 24.2523 12.7507 26.2083ZM28.334 26.2083C28.334 28.1643 26.7483 29.75 24.7923 29.75C22.8363 29.75 21.2507 28.1643 21.2507 26.2083C21.2507 24.2523 22.8363 22.6667 24.7923 22.6667C26.7483 22.6667 28.334 24.2523 28.334 26.2083Z" stroke="white" stroke-width="1.5" stroke-linecap="round" stroke-linejoin="round"/>
</svg>
