<svg width="34" height="34" viewBox="0 0 34 34" fill="none" xmlns="http://www.w3.org/2000/svg">
<path d="M22.6673 11.3333V7.36665C22.6673 5.77983 22.6673 4.98642 22.3585 4.38034C22.0869 3.84721 21.6534 3.41377 21.1203 3.14213C20.5142 2.83331 19.7208 2.83331 18.134 2.83331H7.36732C5.7805 2.83331 4.98709 2.83331 4.38101 3.14213C3.84789 3.41377 3.41444 3.84721 3.1428 4.38034C2.83398 4.98642 2.83398 5.77983 2.83398 7.36665V18.1333C2.83398 19.7201 2.83398 20.5135 3.1428 21.1196C3.41444 21.6527 3.84789 22.0862 4.38101 22.3578C4.98709 22.6666 5.7805 22.6666 7.36732 22.6666H11.334M17.0007 21.25L19.834 24.0833L26.209 17.7083M15.8673 31.1666H26.634C28.2208 31.1666 29.0142 31.1666 29.6203 30.8578C30.1534 30.5862 30.5869 30.1527 30.8585 29.6196C31.1673 29.0135 31.1673 28.2201 31.1673 26.6333V15.8666C31.1673 14.2798 31.1673 13.4864 30.8585 12.8803C30.5869 12.3472 30.1534 11.9138 29.6203 11.6421C29.0142 11.3333 28.2208 11.3333 26.634 11.3333H15.8673C14.2805 11.3333 13.4871 11.3333 12.881 11.6421C12.3479 11.9138 11.9144 12.3472 11.6428 12.8803C11.334 13.4864 11.334 14.2798 11.334 15.8666V26.6333C11.334 28.2201 11.334 29.0135 11.6428 29.6196C11.9144 30.1527 12.3479 30.5862 12.881 30.8578C13.4871 31.1666 14.2805 31.1666 15.8673 31.1666Z" stroke="#020202" stroke-width="1.5" stroke-linecap="round" stroke-linejoin="round"/>
</svg>
