<svg width="69" height="69" viewBox="0 0 69 69" fill="none" xmlns="http://www.w3.org/2000/svg">
<path d="M66.1372 12.2264C60.3543 2.05108 47.6078 -1.54915 37.5074 4.04192C31.1637 0.540052 23.2527 0.428318 16.6562 4.29726C12.8071 6.55481 9.79667 9.91032 7.95037 14.001C6.14492 18.0014 5.57825 22.3988 6.31175 26.7174C6.38926 27.1736 6.77914 27.4955 7.21995 27.4955C7.27199 27.4955 7.32489 27.491 7.37792 27.4818C7.88012 27.3938 8.21698 26.9089 8.13036 26.3987C6.75047 18.2742 10.5476 10.0448 17.5789 5.92077C23.275 2.58001 30.0443 2.48764 35.6621 5.18975C29.8962 9.1913 26.5631 15.7029 26.3903 22.4975C21.7008 25.4036 18.3473 29.9523 16.9205 35.3619C16.5758 36.669 16.3547 37.9896 16.2525 39.3101C13.9044 37.6667 11.9263 35.4996 10.4583 32.9166C9.99893 32.1081 9.59318 31.2631 9.25239 30.4047C9.06182 29.9247 8.52418 29.6925 8.0515 29.8861C7.57882 30.0798 7.35024 30.626 7.54093 31.1061C7.91383 32.0454 8.35772 32.9699 8.86017 33.854C10.6694 37.0374 13.1867 39.6433 16.193 41.5041C16.2762 45.0792 17.2391 48.5969 19.0483 51.7804C22.989 58.7143 30.1625 62.5947 37.5295 62.5947C41.1403 62.5947 44.7978 61.6622 48.1432 59.7001C50.8199 58.1301 53.0777 56.0463 54.8539 53.5063C55.149 53.0842 55.0515 52.4989 54.636 52.1992C54.2206 51.8995 53.6445 51.9986 53.3493 52.4206C51.7278 54.7393 49.6659 56.6423 47.2205 58.0766C37.931 63.5251 26.0098 60.2802 20.6465 50.843C19.1785 48.26 18.3201 45.4363 18.0931 42.5489C19.27 43.1192 20.5064 43.5851 21.793 43.9353C23.6281 44.4348 25.49 44.6819 27.3403 44.6819C30.8556 44.6819 34.3267 43.7877 37.4846 42.0394C39.2245 43.0024 41.1041 43.7229 43.078 44.1685C44.6112 44.5146 46.162 44.6856 47.7056 44.6856C50.875 44.6854 54.0121 43.9619 56.8982 42.5541C56.7261 44.6574 56.2179 46.751 55.3678 48.7652C55.167 49.2411 55.3838 49.7922 55.8522 49.9962C56.3206 50.2006 56.8631 49.9799 57.064 49.5041C58.1274 46.9846 58.7124 44.2524 58.786 41.515C63.4803 38.6092 66.8373 34.0582 68.265 28.6451C69.7376 23.0624 68.9819 17.2315 66.1372 12.2264ZM22.2707 42.1244C20.7814 41.719 19.3655 41.1448 18.0416 40.4199C18.0856 38.8928 18.304 37.3599 18.7031 35.847C19.9124 31.2625 22.6372 27.3557 26.4455 24.6956C26.6209 27.0205 27.1705 29.3504 28.1253 31.5973C28.3273 32.0726 28.8705 32.2916 29.3381 32.0864C29.806 31.8811 30.0215 31.3295 29.8195 30.8543C28.8146 28.4895 28.3011 26.0241 28.2364 23.581C34.186 20.3076 41.1327 20.5194 46.7293 23.5755C46.5248 30.0715 43.1821 36.3301 37.4632 39.8892C35.3065 38.5286 33.3775 36.7126 31.8185 34.4719C31.5243 34.0492 30.9486 33.9487 30.5324 34.2474C30.1163 34.5464 30.0174 35.1312 30.3115 35.554C31.7771 37.6603 33.5852 39.4596 35.642 40.8915C31.4718 42.9093 26.7812 43.3522 22.2707 42.1244ZM39.3029 40.9132C43.2707 38.1694 46.205 34.1588 47.6415 29.4686C48.121 27.9032 48.4203 26.3042 48.5437 24.6999C50.8512 26.3127 52.8498 28.457 54.3411 31.0809C55.9964 33.9935 56.873 37.1911 56.9578 40.4212C51.2898 43.5472 44.7532 43.5665 39.3029 40.9132ZM66.4826 28.1598C65.2727 32.7465 62.5459 36.655 58.7347 39.3151C58.4953 36.0725 57.5567 32.9894 55.9392 30.1434C54.097 26.902 51.548 24.3282 48.6031 22.5058C48.5336 19.5381 47.8608 16.5962 46.5957 13.8595C46.3791 13.3907 45.8294 13.1897 45.3682 13.4093C44.907 13.6294 44.7086 14.1877 44.9252 14.6563C45.9368 16.8449 46.511 19.1465 46.6833 21.4518C41.024 18.7112 34.2636 18.5371 28.2936 21.4468C28.786 15.3357 32.0733 9.59587 37.5096 6.20648C39.5013 7.44868 41.2975 9.07344 42.7818 11.058C43.0899 11.4703 43.6688 11.5502 44.0747 11.2374C44.4804 10.9242 44.5594 10.3361 44.2512 9.92395C42.8468 8.04622 41.1874 6.4627 39.3554 5.18913C48.4128 0.817012 59.4397 4.19127 64.539 13.1637C67.1372 17.7352 67.8274 23.0609 66.4826 28.1598Z" fill="#F0904A"/>
</svg>
