<svg width="24" height="25" viewBox="0 0 24 25" fill="none" xmlns="http://www.w3.org/2000/svg">
<path d="M13 5.5C13 6.60457 10.5376 7.5 7.5 7.5C4.46243 7.5 2 6.60457 2 5.5M13 5.5C13 4.39543 10.5376 3.5 7.5 3.5C4.46243 3.5 2 4.39543 2 5.5M13 5.5V9.95715C11.7785 10.324 11 10.8789 11 11.5M2 5.5V17.5C2 18.6046 4.46243 19.5 7.5 19.5C8.82963 19.5 10.0491 19.3284 11 19.0429V11.5M2 9.5C2 10.6046 4.46243 11.5 7.5 11.5C8.82963 11.5 10.0491 11.3284 11 11.0429M2 13.5C2 14.6046 4.46243 15.5 7.5 15.5C8.82963 15.5 10.0491 15.3284 11 15.0429M22 11.5C22 12.6046 19.5376 13.5 16.5 13.5C13.4624 13.5 11 12.6046 11 11.5M22 11.5C22 10.3954 19.5376 9.5 16.5 9.5C13.4624 9.5 11 10.3954 11 11.5M22 11.5V19.5C22 20.6046 19.5376 21.5 16.5 21.5C13.4624 21.5 11 20.6046 11 19.5V11.5M22 15.5C22 16.6046 19.5376 17.5 16.5 17.5C13.4624 17.5 11 16.6046 11 15.5" stroke="#202020" stroke-width="2" stroke-linecap="round" stroke-linejoin="round"/>
</svg>
