<svg width="69" height="69" viewBox="0 0 69 69" fill="none" xmlns="http://www.w3.org/2000/svg">
<g clip-path="url(#clip0_3814_13493)">
<path d="M65.6633 15.2257L34.9515 0.104868C34.6673 -0.0351188 34.3325 -0.0351188 34.048 0.104868L27.6161 3.27158C26.4847 3.82887 27.3364 5.63622 28.5196 5.05382L34.4998 2.10958L62.9499 16.1169L34.4999 30.1241L6.04979 16.1168L23.7532 7.40067C24.8847 6.84337 24.0327 5.03589 22.8497 5.61842L3.33636 15.2257C2.99823 15.3919 2.77734 15.7445 2.77734 16.1168V51.8843C2.77734 52.2618 2.99378 52.6067 3.33636 52.7753L34.0482 67.8962C34.3292 68.0345 34.6707 68.0343 34.9516 67.8962L41.0712 64.8832C42.2027 64.326 41.351 62.5187 40.1679 63.1009L35.5107 65.3938V31.8535L64.2009 17.728V51.2684L45.0741 60.6854C43.9393 61.2442 44.8023 63.0462 45.9774 62.4677L65.6633 52.7753C66.0059 52.6067 66.2223 52.2616 66.2223 51.8843V16.1168C66.2225 15.7219 65.962 15.3729 65.6633 15.2257ZM4.79887 51.2684V17.728L33.4891 31.8535V65.394L4.79887 51.2684Z" fill="#F0904A"/>
</g>
<defs>
<clipPath id="clip0_3814_13493">
<rect width="69" height="68" fill="white"/>
</clipPath>
</defs>
</svg>
