<svg width="34" height="34" viewBox="0 0 34 34" fill="none" xmlns="http://www.w3.org/2000/svg">
<path d="M19.1674 11.8318C18.3565 12.4099 17.3641 12.75 16.2923 12.75C13.5539 12.75 11.334 10.5301 11.334 7.79166C11.334 5.05325 13.5539 2.83333 16.2923 2.83333C18.0674 2.83333 19.6246 3.76609 20.5005 5.1682M8.50065 28.4568H12.1986C12.6807 28.4568 13.1599 28.5142 13.6273 28.6289L17.5346 29.5784C18.3824 29.7849 19.2656 29.805 20.1222 29.6386L24.4424 28.7982C25.5836 28.5758 26.6334 28.0294 27.4561 27.229L30.5127 24.2558C31.3855 23.4081 31.3855 22.0326 30.5127 21.1835C29.7268 20.419 28.4823 20.333 27.5933 20.9813L24.031 23.5802C23.5208 23.9531 22.9001 24.1539 22.2617 24.1539H18.8218L21.0113 24.1538C22.2454 24.1538 23.2451 23.1814 23.2451 21.9809V21.5463C23.2451 20.5495 22.5477 19.6803 21.5539 19.4393L18.1745 18.6175C17.6245 18.4841 17.0613 18.4167 16.4951 18.4167C15.1283 18.4167 12.6542 19.5483 12.6542 19.5483L8.50065 21.2852M28.334 9.20833C28.334 11.9467 26.1141 14.1667 23.3757 14.1667C20.6372 14.1667 18.4173 11.9467 18.4173 9.20833C18.4173 6.46992 20.6372 4.24999 23.3757 4.24999C26.1141 4.24999 28.334 6.46992 28.334 9.20833ZM2.83398 20.6833L2.83398 28.9C2.83398 29.6934 2.83398 30.0901 2.98839 30.3931C3.12421 30.6597 3.34093 30.8764 3.6075 31.0123C3.91054 31.1667 4.30724 31.1667 5.10065 31.1667H6.23398C7.02739 31.1667 7.4241 31.1667 7.72714 31.0123C7.9937 30.8764 8.21042 30.6597 8.34624 30.3931C8.50065 30.0901 8.50065 29.6934 8.50065 28.9V20.6833C8.50065 19.8899 8.50065 19.4932 8.34624 19.1902C8.21042 18.9236 7.9937 18.7069 7.72714 18.5711C7.4241 18.4167 7.02739 18.4167 6.23399 18.4167L5.10065 18.4167C4.30724 18.4167 3.91054 18.4167 3.6075 18.5711C3.34094 18.7069 3.12421 18.9236 2.98839 19.1902C2.83398 19.4932 2.83398 19.8899 2.83398 20.6833Z" stroke="white" stroke-width="1.5" stroke-linecap="round" stroke-linejoin="round"/>
</svg>
