<svg width="69" height="69" viewBox="0 0 69 69" fill="none" xmlns="http://www.w3.org/2000/svg">
<g clip-path="url(#clip0_3814_13485)">
<path d="M59.9213 32.8604C60.0729 32.5361 60.0012 32.1418 59.7432 31.8881L30.6215 3.25107C30.2829 2.91814 29.7161 2.91848 29.3777 3.25176L0.255736 31.8877C-0.0843651 32.2217 -0.0857714 32.7763 0.254681 33.1111L29.377 61.7487C29.7162 62.0822 30.2837 62.0812 30.622 61.7469L46.3547 46.2768C47.1583 45.4866 45.9155 44.2644 45.1116 45.0544L30.8777 59.0509V46.1748L55.0439 35.288L48.395 41.826C47.5913 42.6164 48.8344 43.8385 49.638 43.0484L59.7432 33.1118C59.8161 33.0401 59.8795 32.95 59.9213 32.8604ZM30.8789 5.94889L55.0441 29.712L30.8789 18.8251V5.94889ZM29.1198 59.051L4.95456 35.2879L29.1198 46.1748V59.051ZM29.9986 44.6694L2.9865 32.5L18.1581 25.6651C19.1914 25.1997 18.4592 23.6285 17.4259 24.0935L4.95468 29.712L29.1209 5.94912V18.8252L21.6415 22.1947C20.6082 22.66 21.3407 24.2318 22.3738 23.7662L30 20.3306L57.012 32.5L29.9986 44.6694Z" fill="#F0904A"/>
</g>
<defs>
<clipPath id="clip0_3814_13485">
<rect width="60" height="59" fill="white" transform="translate(0 3)"/>
</clipPath>
</defs>
</svg>
