<svg width="16" height="16" viewBox="0 0 16 16" fill="none" xmlns="http://www.w3.org/2000/svg">
<path d="M1.33337 13.3356V7.33561C1.33337 6.59923 1.93033 6.00228 2.66671 6.00228M2.66671 6.00228H13.3334M2.66671 6.00228L2.66671 4.00228C2.66671 3.2659 3.26366 2.66895 4.00004 2.66895H6.66671C7.40309 2.66895 8.00004 3.2659 8.00004 4.00228M13.3334 6.00228C14.0698 6.00228 14.6667 6.59923 14.6667 7.33561V13.3356M13.3334 6.00228V4.00228C13.3334 3.2659 12.7364 2.66895 12 2.66895H9.33337C8.59699 2.66895 8.00004 3.2659 8.00004 4.00228M8.00004 4.00228V6.00228M1.33337 10.6689L14.6667 10.6689" stroke="#281C1B" stroke-width="1.5"/>
</svg>
