<svg width="16" height="16" viewBox="0 0 16 16" fill="none" xmlns="http://www.w3.org/2000/svg">
<g clip-path="url(#clip0_1867_30)">
<path d="M3.33329 12.002H1.99996C1.64634 12.002 1.3072 11.8615 1.05715 11.6114C0.807102 11.3614 0.666626 11.0222 0.666626 10.6686V5.33529C0.666626 4.98166 0.807102 4.64253 1.05715 4.39248C1.3072 4.14243 1.64634 4.00195 1.99996 4.00195H4.12663M9.99996 4.00195H11.3333C11.6869 4.00195 12.0261 4.14243 12.2761 4.39248C12.5261 4.64253 12.6666 4.98166 12.6666 5.33529V10.6686C12.6666 11.0222 12.5261 11.3614 12.2761 11.6114C12.0261 11.8615 11.6869 12.002 11.3333 12.002H9.20663M15.3333 8.66862V7.33529M7.33329 4.00195L4.66663 8.00195H8.66663L5.99996 12.002" stroke="#281C1B" stroke-width="1.5" stroke-linecap="round" stroke-linejoin="round"/>
</g>
<defs>
<clipPath id="clip0_1867_30">
<rect width="16" height="16" fill="white" transform="translate(0 0.00195312)"/>
</clipPath>
</defs>
</svg>
