<svg width="16" height="16" viewBox="0 0 16 16" fill="none" xmlns="http://www.w3.org/2000/svg">
<path fill-rule="evenodd" clip-rule="evenodd" d="M0.666626 6.00195C0.666626 3.79281 2.45749 2.00195 4.66663 2.00195H11.3333C13.5424 2.00195 15.3333 3.79281 15.3333 6.00195V10.002C15.3333 12.2111 13.5424 14.002 11.3333 14.002H4.66663C2.45749 14.002 0.666626 12.2111 0.666626 10.002V6.00195ZM8.29553 8.23828V7.70833C8.29553 6.30111 9.07255 5.45964 10.4189 5.45964C11.0563 5.45964 11.622 5.65299 11.9729 5.99316C12.2093 6.22233 12.3525 6.50163 12.3525 6.72363C12.3525 7.01009 12.1556 7.19987 11.8691 7.19987C11.6793 7.19987 11.5397 7.12825 11.3535 6.93848C11.0849 6.60905 10.8343 6.45866 10.4905 6.45866C9.84599 6.45866 9.48075 6.9349 9.48075 7.76204V8.18457C9.48075 9.06543 9.83883 9.54167 10.4905 9.54167C10.8378 9.54167 11.1171 9.39128 11.3714 9.06901C11.5612 8.87207 11.6901 8.80404 11.8727 8.80404C12.1627 8.80404 12.3597 8.9974 12.3597 9.28027C12.3597 9.56315 12.1663 9.87825 11.8548 10.111C11.5039 10.3831 11.0097 10.5443 10.4189 10.5443C9.05107 10.5443 8.29553 9.70638 8.29553 8.23828ZM3.64058 7.70833V8.23828C3.64058 9.70638 4.39612 10.5443 5.76396 10.5443C6.35478 10.5443 6.84892 10.3831 7.19983 10.111C7.51135 9.87825 7.70471 9.56315 7.70471 9.28027C7.70471 8.9974 7.50777 8.80404 7.21773 8.80404C7.03512 8.80404 6.90621 8.87207 6.71643 9.06901C6.4622 9.39128 6.1829 9.54167 5.83557 9.54167C5.18388 9.54167 4.82581 9.06543 4.82581 8.18457V7.76204C4.82581 6.9349 5.19104 6.45866 5.83557 6.45866C6.17932 6.45866 6.42997 6.60905 6.69853 6.93848C6.88472 7.12825 7.02437 7.19987 7.21415 7.19987C7.50061 7.19987 7.69755 7.01009 7.69755 6.72363C7.69755 6.50163 7.55432 6.22233 7.31799 5.99316C6.96708 5.65299 6.40133 5.45964 5.76396 5.45964C4.4176 5.45964 3.64058 6.30111 3.64058 7.70833Z" fill="#1B2128"/>
</svg>
