<svg width="26" height="25" viewBox="0 0 26 25" fill="none" xmlns="http://www.w3.org/2000/svg">
<path d="M21.1253 0C22.468 0 23.6165 0.458456 24.5697 1.3752C25.523 2.29194 25.9998 3.39629 25.9999 4.68746V20.3124C25.9999 21.6035 25.5231 22.7077 24.5695 23.6246C23.6163 24.5415 22.4679 25 21.1251 25H4.87493C3.53215 25 2.38372 24.5415 1.43012 23.6246C0.476692 22.7077 -0.000110155 21.6034 -0.000110155 20.3124V4.68746C-0.000110155 3.39629 0.476692 2.29211 1.43012 1.3752C2.38372 0.458456 3.53215 0 4.87493 0H21.1253Z" fill="#737474"/>
<path d="M8.95652 5C7.825 5 7.00318 5.67718 7.00318 6.60856C7.00318 7.54319 7.84457 8.25019 8.95652 8.25019C10.088 8.25019 10.9099 7.55993 10.9099 6.58948C10.8577 5.65485 10.0522 5 8.95652 5ZM7.32609 8.90468C7.14674 8.90468 7 9.05123 7 9.23034V18.6743C7 18.8535 7.14674 19 7.32609 19H10.587C10.7663 19 10.913 18.8535 10.913 18.6743V9.23034C10.913 9.05123 10.7663 8.90468 10.587 8.90468H7.32609ZM12.2174 8.90468C12.038 8.90468 11.8913 9.05123 11.8913 9.23034V18.6743C11.8913 18.8535 12.038 19 12.2174 19H15.1522C15.3322 19 15.4783 18.8541 15.4783 18.6743V13.7895V13.7081V13.6267C15.4783 12.8549 16.0719 12.2262 16.8285 12.1676C16.8676 12.1611 16.9065 12.1612 16.9457 12.1612C16.9848 12.1612 17.0237 12.1611 17.0628 12.1676C17.8194 12.2262 18.413 12.8549 18.413 13.6267V18.6743C18.413 18.8541 18.5591 19 18.7391 19H21.6739C21.8533 19 22 18.8535 22 18.6743V13.1382C22 11.0312 20.8682 8.90468 18.3443 8.90468C17.1964 8.90468 16.3293 9.34765 15.8043 9.71564V9.23034C15.8043 9.05123 15.6576 8.90468 15.4783 8.90468H12.2174Z" fill="#1A1A1A"/>
</svg>
