<svg width="102" height="44" viewBox="0 0 102 44" fill="none" xmlns="http://www.w3.org/2000/svg">
<path d="M0 0.459865H9.25832C14.0471 0.459865 18.3038 1.69796 18.3038 6.79185C18.3038 9.23267 17.2396 11.4259 15.466 12.4517C17.9136 13.4776 19.368 15.3878 19.368 18.5361C19.368 23.9837 15.2886 26.1062 10.1451 26.1062H0V0.459865ZM3.61819 11.4259H9.82588C12.7701 11.4259 14.6501 10.2939 14.6501 7.28709C14.6501 4.6694 12.6991 3.50205 9.82588 3.50205H3.61819V11.4259ZM3.61819 23.064H10.1806C13.8343 23.064 15.6434 21.4722 15.6434 18.5715C15.6434 15.5647 13.8343 14.2912 9.96777 14.2912H3.61819V23.064Z" fill="#212121"/>
<path d="M33.9427 15.2817C33.3042 15.317 32.6657 15.317 31.9917 15.317H27.4513V26.1062H23.8331V0.459865H31.9917C38.2704 0.459865 42.7044 1.69796 42.7044 7.85308C42.7044 11.9211 40.7534 13.8667 37.5964 14.7157L43.5558 26.1062H39.5119L33.9427 15.2817ZM27.4513 3.50205V12.2749H32.2755C36.0356 12.2749 38.9798 11.8857 38.9798 7.92383C38.9798 3.96191 36.0356 3.50205 32.2755 3.50205H27.4513Z" fill="#212121"/>
<path d="M51.5268 26.1062H47.9086V0.459865H51.5268V26.1062Z" fill="#212121"/>
<path d="M79.21 17.9347C78.0749 23.5946 73.6409 26.566 68.0717 26.566C60.6934 26.566 56.4012 21.0477 56.4012 13.23C56.4012 5.27076 61.0836 0 68.3555 0C73.6763 0 77.9685 3.1483 79.0682 8.63131H75.5564C74.776 5.44763 72.2929 3.04218 68.1781 3.04218C63.6376 3.04218 60.0904 6.5796 60.0904 13.23C60.0904 19.7034 63.4957 23.5239 68.2845 23.5239C72.3639 23.5239 74.8824 21.2245 75.6983 17.9347H79.21Z" fill="#212121"/>
<path d="M91.7839 0C96.3953 0 100.546 2.05171 101.539 7.0041H98.0271C97.1403 4.03266 94.2315 3.04218 91.642 3.04218C89.6556 3.04218 86.1793 3.92654 86.1793 6.79185C86.1793 9.0558 87.9884 10.1878 90.365 10.7184L93.3447 11.3905C97.2822 12.2395 102 13.7252 102 18.8898C102 23.913 97.3176 26.566 92.2096 26.566C86.1438 26.566 82.3128 23.2762 81.6388 18.147H85.186C85.86 21.6844 88.3431 23.5239 92.2805 23.5239C96.0761 23.5239 98.2754 21.7198 98.2754 19.2082C98.2754 16.5198 95.9697 15.3878 92.7417 14.6803L89.5492 14.0082C86.0374 13.23 82.4901 11.2844 82.4901 7.0041C82.4901 2.12245 87.6336 0 91.7839 0Z" fill="#212121"/>
<path d="M31.7545 38.8617C31.3521 41.0135 29.7961 42.2356 27.556 42.2356C24.7123 42.2356 23.0624 40.2298 23.0624 37.2146C23.0624 34.1861 24.8196 32.26 27.6365 32.26C29.7961 32.26 31.3386 33.4821 31.7276 35.6339H30.0912C29.7961 34.3322 28.8437 33.6415 27.5828 33.6415C26.0402 33.6415 24.8196 34.8901 24.8196 37.2146C24.8196 39.5524 26.0134 40.8541 27.5694 40.8541C28.8839 40.8541 29.8229 40.1767 30.118 38.8617H31.7545Z" fill="#212121"/>
<path d="M37.4098 42.2356C34.5527 42.2356 32.7687 40.2033 32.7687 37.2412C32.7687 34.279 34.5527 32.26 37.4098 32.26C40.2669 32.26 42.0509 34.279 42.0509 37.2412C42.0509 40.2033 40.2669 42.2356 37.4098 42.2356ZM37.4098 40.8541C39.0195 40.8541 40.2938 39.579 40.2938 37.2412C40.2938 34.9033 39.0195 33.6415 37.4098 33.6415C35.8002 33.6415 34.5259 34.9033 34.5259 37.2412C34.5259 39.579 35.8002 40.8541 37.4098 40.8541Z" fill="#212121"/>
<path d="M47.7554 42.0629L45.2873 34.2658V42.0629H43.624V32.4327H46.2665L48.6273 40.1103L50.9747 32.4327H53.6172V42.0629H51.9539V34.2658L49.4858 42.0629H47.7554Z" fill="#212121"/>
<path d="M59.702 42.0629L57.2339 34.2658V42.0629H55.5706V32.4327H58.2131L60.5739 40.1103L62.9213 32.4327H65.5638V42.0629H63.9005V34.2658L61.4324 42.0629H59.702Z" fill="#212121"/>
<path d="M67.5172 32.4327H74.3984V33.8407H69.2207V36.4176H74.1167V37.8123H69.2207V40.6416H74.3984V42.0629H67.5172V32.4327Z" fill="#212121"/>
<path d="M79.6329 37.9983C79.4719 38.0116 79.2975 38.0116 79.1232 38.0116H77.4733V42.0629H75.7697V32.4327H78.8683C81.7388 32.4327 83.2009 33.0703 83.2009 35.2089C83.2009 36.4442 82.5839 37.281 81.3767 37.6928L83.6033 42.0629H81.6852L79.6329 37.9983ZM77.4733 33.7876V36.67H79.1634C80.6255 36.67 81.4571 36.3778 81.4571 35.2221C81.4571 33.9603 80.4511 33.7876 79.1097 33.7876H77.4733Z" fill="#212121"/>
<path d="M92.9148 38.8617C92.5124 41.0135 90.9564 42.2356 88.7164 42.2356C85.8727 42.2356 84.2228 40.2298 84.2228 37.2146C84.2228 34.1861 85.98 32.26 88.7968 32.26C90.9565 32.26 92.499 33.4821 92.888 35.6339H91.2515C90.9565 34.3322 90.0041 33.6415 88.7432 33.6415C87.2006 33.6415 85.98 34.8901 85.98 37.2146C85.98 39.5524 87.1738 40.8541 88.7298 40.8541C90.0443 40.8541 90.9833 40.1767 91.2784 38.8617H92.9148Z" fill="#212121"/>
<path d="M94.3446 32.4327H101.226V33.8407H96.0481V36.4176H100.944V37.8123H96.0481V40.6416H101.226V42.0629H94.3446V32.4327Z" fill="#212121"/>
<path d="M0 31.9916C0 31.1348 0.701402 30.4403 1.56662 30.4403C2.43185 30.4403 3.13325 31.1348 3.13325 31.9916V42.4486C3.13325 43.3054 2.43185 44 1.56662 44C0.701402 44 0 43.3054 0 42.4486V31.9916Z" fill="#4CA856"/>
<path d="M4.38659 31.9916C4.38659 31.1348 5.088 30.4403 5.95322 30.4403C6.81844 30.4403 7.51984 31.1348 7.51984 31.9916V42.4486C7.51984 43.3054 6.81844 44 5.95322 44C5.088 44 4.38659 43.3054 4.38659 42.4486V31.9916Z" fill="#4584BA"/>
<path d="M8.77319 31.9916C8.77319 31.1348 9.47459 30.4403 10.3398 30.4403C11.205 30.4403 11.9064 31.1348 11.9064 31.9916V42.4486C11.9064 43.3054 11.205 44 10.3398 44C9.47459 44 8.77319 43.3054 8.77319 42.4486V31.9916Z" fill="#E2883B"/>
<path d="M13.1598 31.9916C13.1598 31.1348 13.8612 30.4403 14.7264 30.4403C15.5916 30.4403 16.293 31.1348 16.293 31.9916V42.4486C16.293 43.3054 15.5916 44 14.7264 44C13.8612 44 13.1598 43.3054 13.1598 42.4486V31.9916Z" fill="#BE3933"/>
<path d="M17.5464 31.9916C17.5464 31.1348 18.2478 30.4403 19.113 30.4403C19.9782 30.4403 20.6796 31.1348 20.6796 31.9916V42.4486C20.6796 43.3054 19.9782 44 19.113 44C18.2478 44 17.5464 43.3054 17.5464 42.4486V31.9916Z" fill="#EEBB43"/>
</svg>
