<svg width="26" height="25" viewBox="0 0 26 25" fill="none" xmlns="http://www.w3.org/2000/svg">
<path d="M21.1253 0C22.468 0 23.6165 0.458456 24.5697 1.3752C25.523 2.29194 25.9998 3.39629 25.9999 4.68746V20.3124C25.9999 21.6035 25.5231 22.7077 24.5695 23.6246C23.6163 24.5415 22.4679 25 21.1251 25H4.87493C3.53215 25 2.38372 24.5415 1.43012 23.6246C0.476692 22.7077 -0.000110155 21.6034 -0.000110155 20.3124V4.68746C-0.000110155 3.39629 0.476692 2.29211 1.43012 1.3752C2.38372 0.458456 3.53215 0 4.87493 0H21.1253Z" fill="#737474"/>
<path d="M9.08696 8C7.73781 8 6.44392 8.52678 5.48994 9.46447C4.53595 10.4021 4 11.6739 4 13C4 14.3261 4.53595 15.5979 5.48994 16.5355C6.44392 17.4732 7.73781 18 9.08696 18C10.4361 18 11.73 17.4732 12.684 16.5355C13.638 15.5979 14.1739 14.3261 14.1739 13C14.1739 11.6739 13.638 10.4021 12.684 9.46447C11.73 8.52678 10.4361 8 9.08696 8ZM17.1087 8.38462C15.7039 8.38462 14.5652 10.4512 14.5652 13C14.5652 13.4781 14.6051 13.9388 14.6795 14.3723C14.7785 14.9504 14.9385 15.4796 15.1459 15.9358C15.2496 16.1638 15.365 16.3735 15.4907 16.5615C15.7419 16.9377 16.0338 17.2281 16.3523 17.4081C16.5914 17.5427 16.8453 17.6154 17.1087 17.6154C17.372 17.6154 17.626 17.5427 17.8651 17.4081C18.1836 17.2281 18.4755 16.9377 18.7267 16.5615C18.8523 16.3735 18.9678 16.1638 19.0715 15.9358C19.2789 15.48 19.4389 14.9504 19.5379 14.3723C19.6123 13.9388 19.6522 13.4781 19.6522 13C19.6522 10.4512 18.5135 8.38462 17.1087 8.38462ZM21.0217 8.76923C20.9204 8.76923 20.8226 8.83577 20.731 8.95962C20.6696 9.04192 20.6109 9.14962 20.5557 9.28C20.5279 9.345 20.5009 9.41577 20.4751 9.49192C20.423 9.64385 20.3745 9.81731 20.3303 10.0085C20.2419 10.3912 20.1703 10.8473 20.1206 11.3535C20.0959 11.6065 20.0767 11.8723 20.0634 12.1477C20.0501 12.4227 20.0435 12.7081 20.0435 13C20.0435 13.2919 20.0501 13.5773 20.0634 13.8527C20.0763 14.1281 20.0955 14.3938 20.1206 14.6469C20.1703 15.1531 20.2419 15.6088 20.3303 15.9919C20.3745 16.1835 20.423 16.3565 20.4751 16.5085C20.5009 16.5846 20.5279 16.6554 20.5557 16.7204C20.6113 16.8508 20.67 16.9585 20.731 17.0408C20.8226 17.1642 20.9204 17.2308 21.0217 17.2308C21.5621 17.2308 22 15.3365 22 13C22 10.6635 21.5621 8.76923 21.0217 8.76923Z" fill="#1A1A1A"/>
</svg>
