<svg width="69" height="69" viewBox="0 0 69 69" fill="none" xmlns="http://www.w3.org/2000/svg">
<g clip-path="url(#clip0_3814_13489)">
<g clip-path="url(#clip1_3814_13489)">
<path d="M68.8665 53.0276L39.3559 1.90662C39.1779 1.59836 38.8491 1.40857 38.4931 1.40857H31.5227C31.1669 1.40857 30.8381 1.59836 30.6601 1.90648L1.13349 53.0275C0.955524 53.3356 0.955524 53.7152 1.13336 54.0234L4.63509 60.0932C4.81306 60.4016 5.14191 60.5915 5.49798 60.5915H22.462C23.0121 60.5915 23.4581 60.1456 23.4581 59.5955C23.4581 59.0453 23.0121 58.5994 22.462 58.5994H7.22321L19.3343 37.6223C19.6093 37.1459 19.4461 36.5367 18.9697 36.2616C18.4933 35.9864 17.8839 36.1498 17.609 36.6262L5.49824 57.6027L3.14627 53.5259L31.5221 4.39738L35.9818 12.132C36.1662 12.4519 36.5012 12.6307 36.8456 12.6307C37.0144 12.6307 37.1856 12.5877 37.3422 12.4973C37.8187 12.2226 37.9823 11.6135 37.7075 11.137L33.2469 3.40062H37.918L66.2787 52.5296H17.7312L20.0804 48.4607H40.0271C40.5772 48.4607 41.0232 48.0147 41.0232 47.4646C41.0232 46.9145 40.5772 46.4685 40.0271 46.4685H21.2307L35.0029 22.6142L48.7752 46.4685H44.6642C44.1141 46.4685 43.6682 46.9145 43.6682 47.4646C43.6682 48.0147 44.1141 48.4607 44.6642 48.4607H57.5042C57.86 48.4607 58.1887 48.2709 58.3666 47.9629C58.5446 47.6548 58.5448 47.2752 58.367 46.967L40.0299 15.1645C39.755 14.6878 39.1456 14.5242 38.6694 14.7991C38.1928 15.0739 38.0292 15.683 38.304 16.1597L55.78 46.4685H51.0755L35.8656 20.124L32.3637 14.0586C32.1857 13.7504 31.857 13.5605 31.5011 13.5605C31.1453 13.5605 30.8163 13.7504 30.6385 14.0586L19.9413 32.5866C19.6663 33.063 19.8295 33.6722 20.3059 33.9472C20.4628 34.0378 20.6341 34.0808 20.803 34.0808C21.1473 34.0808 21.4821 33.9021 21.6666 33.5827L31.5011 16.5488L33.8528 20.622L15.1434 53.0276C14.9654 53.3357 14.9654 53.7156 15.1434 54.0237C15.3213 54.3318 15.65 54.5218 16.006 54.5218H66.2784L63.9235 58.5994H27.1104C26.5603 58.5994 26.1143 59.0453 26.1143 59.5955C26.1143 60.1456 26.5603 60.5915 27.1104 60.5915H64.4986C64.8544 60.5915 65.1833 60.4018 65.3612 60.0936L68.8667 54.0238C69.0445 53.7156 69.0445 53.3359 68.8665 53.0276Z" fill="#F0904A"/>
</g>
</g>
<defs>
<clipPath id="clip0_3814_13489">
<path d="M0 20C0 8.9543 8.9543 0 20 0H49C60.0457 0 69 8.9543 69 20V49C69 60.0457 60.0457 69 49 69H20C8.9543 69 0 60.0457 0 49V20Z" fill="white"/>
</clipPath>
<clipPath id="clip1_3814_13489">
<rect width="68" height="68" fill="white" transform="translate(1 -3)"/>
</clipPath>
</defs>
</svg>
