<svg width="26" height="25" viewBox="0 0 26 25" fill="none" xmlns="http://www.w3.org/2000/svg">
<path d="M21.1253 0C22.468 0 23.6165 0.458456 24.5697 1.3752C25.523 2.29194 25.9998 3.39629 25.9999 4.68746V20.3124C25.9999 21.6035 25.5231 22.7077 24.5695 23.6246C23.6163 24.5415 22.4679 25 21.1251 25H4.87493C3.53215 25 2.38372 24.5415 1.43012 23.6246C0.476692 22.7077 -0.000110155 21.6034 -0.000110155 20.3124V4.68746C-0.000110155 3.39629 0.476692 2.29211 1.43012 1.3752C2.38372 0.458456 3.53215 0 4.87493 0H21.1253Z" fill="#737474"/>
<path d="M22 6.77552C21.3375 7.07724 20.6258 7.28028 19.8789 7.37186C20.6417 6.90331 21.2267 6.16144 21.5022 5.27687C20.7892 5.71063 19.9986 6.02584 19.1568 6.19622C18.4832 5.46003 17.5237 5 16.4618 5C14.4223 5 12.7691 6.69601 12.7691 8.78674C12.7691 9.08349 12.8024 9.37314 12.8647 9.6493C9.79578 9.49169 7.07511 7.98381 5.25303 5.69218C4.93596 6.2516 4.75389 6.90189 4.75389 7.5969C4.75389 8.91027 5.40533 10.0696 6.39598 10.7483C5.79093 10.7284 5.22118 10.558 4.72343 10.2747C4.72343 10.2911 4.72343 10.306 4.72343 10.3223C4.72343 12.1575 5.99585 13.6881 7.6857 14.0352C7.37625 14.1218 7.0495 14.168 6.71236 14.168C6.4749 14.168 6.24299 14.1438 6.018 14.1005C6.48806 15.6049 7.85185 16.7003 9.46764 16.7308C8.20422 17.7467 6.61198 18.3523 4.88127 18.3523C4.58359 18.3523 4.28937 18.3345 4 18.299C5.63448 19.3731 7.57494 20 9.66078 20C16.4534 20 20.1668 14.2297 20.1668 9.22547C20.1668 9.06148 20.1634 8.8982 20.1565 8.73562C20.8785 8.20105 21.505 7.53443 22 6.77552Z" fill="#1A1A1A"/>
</svg>
